{
    "asset" : {
        "generator" : "Khronos glTF Blender I/O v1.7.33",
        "version" : "2.0"
    },
    "scene" : 0,
    "scenes" : [
        {
            "name" : "Scene",
            "nodes" : [
                0,
                1,
                2
            ]
        }
    ],
    "nodes" : [
        {
            "mesh" : 0,
            "name" : "Entrance_Door_002",
            "rotation" : [
                0.7071068286895752,
                0,
                0,
                0.7071067094802856
            ],
            "scale" : [
                0.05000000074505806,
                0.05000000074505806,
                0.05000000074505806
            ]
        },
        {
            "mesh" : 1,
            "name" : "Entrance_Door_003",
            "rotation" : [
                0.7071068286895752,
                0,
                0,
                0.7071067094802856
            ],
            "scale" : [
                0.05000000074505806,
                0.05000000074505806,
                0.05000000074505806
            ]
        },
        {
            "mesh" : 2,
            "name" : "Entrance_Door_004",
            "rotation" : [
                0.7071068286895752,
                0,
                0,
                0.7071067094802856
            ],
            "scale" : [
                0.05000000074505806,
                0.05000000074505806,
                0.05000000074505806
            ]
        }
    ],
    "materials" : [
        {
            "doubleSided" : true,
            "name" : "wire_214229166",
            "pbrMetallicRoughness" : {
                "baseColorFactor" : [
                    0.8392000198364258,
                    0.8980000019073486,
                    0.6510000228881836,
                    1
                ],
                "metallicFactor" : 0,
                "roughnessFactor" : 0.8114382028579712
            }
        }
    ],
    "meshes" : [
        {
            "name" : "Entrance_Door_002",
            "primitives" : [
                {
                    "attributes" : {
                        "POSITION" : 0,
                        "NORMAL" : 1,
                        "TEXCOORD_0" : 2
                    },
                    "indices" : 3,
                    "material" : 0
                }
            ]
        },
        {
            "name" : "Entrance_Door_003",
            "primitives" : [
                {
                    "attributes" : {
                        "POSITION" : 4,
                        "NORMAL" : 5,
                        "TEXCOORD_0" : 6
                    },
                    "indices" : 7,
                    "material" : 0
                }
            ]
        },
        {
            "name" : "Entrance_Door_004",
            "primitives" : [
                {
                    "attributes" : {
                        "POSITION" : 8,
                        "NORMAL" : 9,
                        "TEXCOORD_0" : 10
                    },
                    "indices" : 11,
                    "material" : 0
                }
            ]
        }
    ],
    "accessors" : [
        {
            "bufferView" : 0,
            "componentType" : 5126,
            "count" : 31572,
            "max" : [
                1.767799973487854,
                16.45789909362793,
                -0.08550000190734863
            ],
            "min" : [
                -79.18000030517578,
                -7.401000022888184,
                -202.58560180664062
            ],
            "type" : "VEC3"
        },
        {
            "bufferView" : 1,
            "componentType" : 5126,
            "count" : 31572,
            "type" : "VEC3"
        },
        {
            "bufferView" : 2,
            "componentType" : 5126,
            "count" : 31572,
            "type" : "VEC2"
        },
        {
            "bufferView" : 3,
            "componentType" : 5123,
            "count" : 81162,
            "type" : "SCALAR"
        },
        {
            "bufferView" : 4,
            "componentType" : 5126,
            "count" : 37972,
            "max" : [
                79.19090270996094,
                16.464099884033203,
                -0.08550000190734863
            ],
            "min" : [
                -0.5033000111579895,
                -7.389900207519531,
                -202.5854949951172
            ],
            "type" : "VEC3"
        },
        {
            "bufferView" : 5,
            "componentType" : 5126,
            "count" : 37972,
            "type" : "VEC3"
        },
        {
            "bufferView" : 6,
            "componentType" : 5126,
            "count" : 37972,
            "type" : "VEC2"
        },
        {
            "bufferView" : 7,
            "componentType" : 5123,
            "count" : 107367,
            "type" : "SCALAR"
        },
        {
            "bufferView" : 8,
            "componentType" : 5126,
            "count" : 4898,
            "max" : [
                87.40650177001953,
                7.537099838256836,
                -9.999999747378752e-05
            ],
            "min" : [
                -87.40650177001953,
                -16.464099884033203,
                -212.87840270996094
            ],
            "type" : "VEC3"
        },
        {
            "bufferView" : 9,
            "componentType" : 5126,
            "count" : 4898,
            "type" : "VEC3"
        },
        {
            "bufferView" : 10,
            "componentType" : 5126,
            "count" : 4898,
            "type" : "VEC2"
        },
        {
            "bufferView" : 11,
            "componentType" : 5123,
            "count" : 9966,
            "type" : "SCALAR"
        }
    ],
    "bufferViews" : [
        {
            "buffer" : 0,
            "byteLength" : 378864,
            "byteOffset" : 0
        },
        {
            "buffer" : 0,
            "byteLength" : 378864,
            "byteOffset" : 378864
        },
        {
            "buffer" : 0,
            "byteLength" : 252576,
            "byteOffset" : 757728
        },
        {
            "buffer" : 0,
            "byteLength" : 162324,
            "byteOffset" : 1010304
        },
        {
            "buffer" : 0,
            "byteLength" : 455664,
            "byteOffset" : 1172628
        },
        {
            "buffer" : 0,
            "byteLength" : 455664,
            "byteOffset" : 1628292
        },
        {
            "buffer" : 0,
            "byteLength" : 303776,
            "byteOffset" : 2083956
        },
        {
            "buffer" : 0,
            "byteLength" : 214734,
            "byteOffset" : 2387732
        },
        {
            "buffer" : 0,
            "byteLength" : 58776,
            "byteOffset" : 2602468
        },
        {
            "buffer" : 0,
            "byteLength" : 58776,
            "byteOffset" : 2661244
        },
        {
            "buffer" : 0,
            "byteLength" : 39184,
            "byteOffset" : 2720020
        },
        {
            "buffer" : 0,
            "byteLength" : 19932,
            "byteOffset" : 2759204
        }
    ],
    "buffers" : [
        {
            "byteLength" : 2779136,
            "uri" : "data:application/octet-stream;base64,"
        }
    ]
}
