{
    "asset" : {
        "generator" : "Khronos glTF Blender I/O v1.7.33",
        "version" : "2.0"
    },
    "scene" : 0,
    "scenes" : [
        {
            "name" : "Scene",
            "nodes" : [
                0
            ]
        }
    ],
    "nodes" : [
        {
            "mesh" : 0,
            "name" : "16639_12_Pane_Casement_Window-White_V1",
            "rotation" : [
                0.7071068286895752,
                0,
                0,
                0.7071067094802856
            ],
            "scale" : [
                0.20000000298023224,
                0.20000000298023224,
                0.20000000298023224
            ]
        }
    ],
    "materials" : [
        {
            "doubleSided" : true,
            "name" : "White_Mat__wood_",
            "pbrMetallicRoughness" : {
                "baseColorFactor" : [
                    0.9685999751091003,
                    0.9685999751091003,
                    0.9685999751091003,
                    1
                ],
                "metallicFactor" : 0,
                "roughnessFactor" : 0.8300327062606812
            }
        },
        {
            "doubleSided" : true,
            "name" : "Silver_mat",
            "pbrMetallicRoughness" : {
                "baseColorFactor" : [
                    0.6980000138282776,
                    0.6980000138282776,
                    0.6980000138282776,
                    1
                ],
                "metallicFactor" : 0,
                "roughnessFactor" : 0.7418010830879211
            }
        },
        {
            "doubleSided" : true,
            "name" : "Window_Mat",
            "pbrMetallicRoughness" : {
                "baseColorFactor" : [
                    0.8626999855041504,
                    0.8626999855041504,
                    0.8626999855041504,
                    1
                ],
                "metallicFactor" : 0,
                "roughnessFactor" : 0.8945907354354858
            }
        }
    ],
    "meshes" : [
        {
            "name" : "16639_12_Pane_Casement_Window-White_V1",
            "primitives" : [
                {
                    "attributes" : {
                        "POSITION" : 0,
                        "NORMAL" : 1,
                        "TEXCOORD_0" : 2
                    },
                    "indices" : 3,
                    "material" : 0
                },
                {
                    "attributes" : {
                        "POSITION" : 4,
                        "NORMAL" : 5,
                        "TEXCOORD_0" : 6
                    },
                    "indices" : 7,
                    "material" : 1
                },
                {
                    "attributes" : {
                        "POSITION" : 8,
                        "NORMAL" : 9,
                        "TEXCOORD_0" : 10
                    },
                    "indices" : 11,
                    "material" : 2
                }
            ]
        }
    ],
    "accessors" : [
        {
            "bufferView" : 0,
            "componentType" : 5126,
            "count" : 3798,
            "max" : [
                24.024900436401367,
                20.460500717163086,
                1.938599944114685
            ],
            "min" : [
                -24.024999618530273,
                -20.460500717163086,
                -1.938599944114685
            ],
            "type" : "VEC3"
        },
        {
            "bufferView" : 1,
            "componentType" : 5126,
            "count" : 3798,
            "type" : "VEC3"
        },
        {
            "bufferView" : 2,
            "componentType" : 5126,
            "count" : 3798,
            "type" : "VEC2"
        },
        {
            "bufferView" : 3,
            "componentType" : 5123,
            "count" : 10008,
            "type" : "SCALAR"
        },
        {
            "bufferView" : 4,
            "componentType" : 5126,
            "count" : 24175,
            "max" : [
                21.07670021057129,
                16.924100875854492,
                1.6133999824523926
            ],
            "min" : [
                -20.95800018310547,
                -18.719999313354492,
                -0.9843999743461609
            ],
            "type" : "VEC3"
        },
        {
            "bufferView" : 5,
            "componentType" : 5126,
            "count" : 24175,
            "type" : "VEC3"
        },
        {
            "bufferView" : 6,
            "componentType" : 5126,
            "count" : 24175,
            "type" : "VEC2"
        },
        {
            "bufferView" : 7,
            "componentType" : 5123,
            "count" : 108933,
            "type" : "SCALAR"
        },
        {
            "bufferView" : 8,
            "componentType" : 5126,
            "count" : 40,
            "max" : [
                21.07670021057129,
                17.8927001953125,
                -0.7175999879837036
            ],
            "min" : [
                -20.95800018310547,
                -18.719999313354492,
                -0.7914999723434448
            ],
            "type" : "VEC3"
        },
        {
            "bufferView" : 9,
            "componentType" : 5126,
            "count" : 40,
            "type" : "VEC3"
        },
        {
            "bufferView" : 10,
            "componentType" : 5126,
            "count" : 40,
            "type" : "VEC2"
        },
        {
            "bufferView" : 11,
            "componentType" : 5123,
            "count" : 60,
            "type" : "SCALAR"
        }
    ],
    "bufferViews" : [
        {
            "buffer" : 0,
            "byteLength" : 45576,
            "byteOffset" : 0
        },
        {
            "buffer" : 0,
            "byteLength" : 45576,
            "byteOffset" : 45576
        },
        {
            "buffer" : 0,
            "byteLength" : 30384,
            "byteOffset" : 91152
        },
        {
            "buffer" : 0,
            "byteLength" : 20016,
            "byteOffset" : 121536
        },
        {
            "buffer" : 0,
            "byteLength" : 290100,
            "byteOffset" : 141552
        },
        {
            "buffer" : 0,
            "byteLength" : 290100,
            "byteOffset" : 431652
        },
        {
            "buffer" : 0,
            "byteLength" : 193400,
            "byteOffset" : 721752
        },
        {
            "buffer" : 0,
            "byteLength" : 217866,
            "byteOffset" : 915152
        },
        {
            "buffer" : 0,
            "byteLength" : 480,
            "byteOffset" : 1133020
        },
        {
            "buffer" : 0,
            "byteLength" : 480,
            "byteOffset" : 1133500
        },
        {
            "buffer" : 0,
            "byteLength" : 320,
            "byteOffset" : 1133980
        },
        {
            "buffer" : 0,
            "byteLength" : 120,
            "byteOffset" : 1134300
        }
    ],
    "buffers" : [
        {
            "byteLength" : 1134420,
            "uri" : "data:application/octet-stream;base64,"
        }
    ]
}
